<mxfile host="app.diagrams.net" modified="2025-08-27T09:51:15.000Z" agent="5.0" etag="drawio" version="22.1.16" type="device">
  <diagram name="Use Case Diagram" id="use-case-diagram">
    <mxGraphModel dx="1422" dy="754" grid="1" gridSize="10" guides="1" tooltips="1" connect="1" arrows="1" fold="1" page="1" pageScale="1" pageWidth="1169" pageHeight="827" math="0" shadow="0">
      <root>
        <mxCell id="0" />
        <mxCell id="1" parent="0" />
        <mxCell id="2" value="Diagramme de Cas d'Utilisation - Plugin Custom Price Widget" style="text;html=1;strokeColor=none;fillColor=none;align=center;verticalAlign=middle;whiteSpace=wrap;rounded=0;fontSize=16;fontStyle=1;" parent="1" vertex="1">
          <mxGeometry x="300" y="20" width="569" height="30" as="geometry" />
        </mxCell>
        <mxCell id="3" value="Visiteur" style="shape=umlActor;verticalLabelPosition=bottom;verticalAlign=top;html=1;outlineConnect=0;" parent="1" vertex="1">
          <mxGeometry x="50" y="150" width="30" height="60" as="geometry" />
        </mxCell>
        <mxCell id="4" value="Client" style="shape=umlActor;verticalLabelPosition=bottom;verticalAlign=top;html=1;outlineConnect=0;" parent="1" vertex="1">
          <mxGeometry x="50" y="280" width="30" height="60" as="geometry" />
        </mxCell>
        <mxCell id="5" value="Commercial" style="shape=umlActor;verticalLabelPosition=bottom;verticalAlign=top;html=1;outlineConnect=0;" parent="1" vertex="1">
          <mxGeometry x="50" y="410" width="30" height="60" as="geometry" />
        </mxCell>
        <mxCell id="6" value="Administrateur WordPress" style="shape=umlActor;verticalLabelPosition=bottom;verticalAlign=top;html=1;outlineConnect=0;" parent="1" vertex="1">
          <mxGeometry x="50" y="540" width="30" height="60" as="geometry" />
        </mxCell>
        <mxCell id="7" value="Plugin Custom Price Widget" style="swimlane;whiteSpace=wrap;html=1;fontSize=14;fontStyle=1;startSize=30;" parent="1" vertex="1">
          <mxGeometry x="200" y="100" width="850" height="550" as="geometry" />
        </mxCell>
        <mxCell id="8" value="Afficher formulaire" style="ellipse;whiteSpace=wrap;html=1;" parent="7" vertex="1">
          <mxGeometry x="50" y="50" width="120" height="60" as="geometry" />
        </mxCell>
        <mxCell id="9" value="Configurer produit" style="ellipse;whiteSpace=wrap;html=1;" parent="7" vertex="1">
          <mxGeometry x="200" y="50" width="120" height="60" as="geometry" />
        </mxCell>
        <mxCell id="10" value="Sélectionner dimensions" style="ellipse;whiteSpace=wrap;html=1;" parent="7" vertex="1">
          <mxGeometry x="350" y="50" width="120" height="60" as="geometry" />
        </mxCell>
        <mxCell id="11" value="Choisir matières" style="ellipse;whiteSpace=wrap;html=1;" parent="7" vertex="1">
          <mxGeometry x="500" y="50" width="120" height="60" as="geometry" />
        </mxCell>
        <mxCell id="12" value="Saisir informations" style="ellipse;whiteSpace=wrap;html=1;" parent="7" vertex="1">
          <mxGeometry x="650" y="50" width="120" height="60" as="geometry" />
        </mxCell>
        <mxCell id="13" value="Calculer prix" style="ellipse;whiteSpace=wrap;html=1;" parent="7" vertex="1">
          <mxGeometry x="50" y="150" width="120" height="60" as="geometry" />
        </mxCell>
        <mxCell id="14" value="Envoyer devis" style="ellipse;whiteSpace=wrap;html=1;" parent="7" vertex="1">
          <mxGeometry x="200" y="150" width="120" height="60" as="geometry" />
        </mxCell>
        <mxCell id="15" value="Ajouter au panier" style="ellipse;whiteSpace=wrap;html=1;" parent="7" vertex="1">
          <mxGeometry x="350" y="150" width="120" height="60" as="geometry" />
        </mxCell>
        <mxCell id="16" value="Recevoir email client" style="ellipse;whiteSpace=wrap;html=1;" parent="7" vertex="1">
          <mxGeometry x="50" y="250" width="120" height="60" as="geometry" />
        </mxCell>
        <mxCell id="17" value="Recevoir email commercial" style="ellipse;whiteSpace=wrap;html=1;" parent="7" vertex="1">
          <mxGeometry x="200" y="250" width="120" height="60" as="geometry" />
        </mxCell>
        <mxCell id="18" value="Accéder formulaire test" style="ellipse;whiteSpace=wrap;html=1;" parent="7" vertex="1">
          <mxGeometry x="350" y="250" width="120" height="60" as="geometry" />
        </mxCell>
        <mxCell id="19" value="Configurer plugin" style="ellipse;whiteSpace=wrap;html=1;" parent="7" vertex="1">
          <mxGeometry x="500" y="350" width="120" height="60" as="geometry" />
        </mxCell>
        <mxCell id="20" value="Gérer templates" style="ellipse;whiteSpace=wrap;html=1;" parent="7" vertex="1">
          <mxGeometry x="650" y="350" width="120" height="60" as="geometry" />
        </mxCell>
        <mxCell id="21" value="" style="endArrow=none;html=1;rounded=0;" parent="1" source="3" target="8" edge="1">
          <mxGeometry width="50" height="50" relative="1" as="geometry">
            <mxPoint x="100" y="200" as="sourcePoint" />
            <mxPoint x="250" y="180" as="targetPoint" />
          </mxGeometry>
        </mxCell>
        <mxCell id="22" value="" style="endArrow=none;html=1;rounded=0;" parent="1" source="3" target="9" edge="1">
          <mxGeometry width="50" height="50" relative="1" as="geometry">
            <mxPoint x="100" y="200" as="sourcePoint" />
            <mxPoint x="400" y="180" as="targetPoint" />
          </mxGeometry>
        </mxCell>
        <mxCell id="23" value="" style="endArrow=none;html=1;rounded=0;" parent="1" source="3" target="18" edge="1">
          <mxGeometry width="50" height="50" relative="1" as="geometry">
            <mxPoint x="100" y="200" as="sourcePoint" />
            <mxPoint x="550" y="380" as="targetPoint" />
          </mxGeometry>
        </mxCell>
        <mxCell id="24" value="" style="endArrow=none;html=1;rounded=0;" parent="1" source="4" target="16" edge="1">
          <mxGeometry width="50" height="50" relative="1" as="geometry">
            <mxPoint x="100" y="300" as="sourcePoint" />
            <mxPoint x="250" y="380" as="targetPoint" />
          </mxGeometry>
        </mxCell>
        <mxCell id="25" value="" style="endArrow=none;html=1;rounded=0;" parent="1" source="5" target="17" edge="1">
          <mxGeometry width="50" height="50" relative="1" as="geometry">
            <mxPoint x="100" y="440" as="sourcePoint" />
            <mxPoint x="400" y="380" as="targetPoint" />
          </mxGeometry>
        </mxCell>
        <mxCell id="26" value="" style="endArrow=none;html=1;rounded=0;" parent="1" source="6" target="19" edge="1">
          <mxGeometry width="50" height="50" relative="1" as="geometry">
            <mxPoint x="100" y="570" as="sourcePoint" />
            <mxPoint x="700" y="480" as="targetPoint" />
          </mxGeometry>
        </mxCell>
        <mxCell id="27" value="" style="endArrow=none;html=1;rounded=0;" parent="1" source="6" target="20" edge="1">
          <mxGeometry width="50" height="50" relative="1" as="geometry">
            <mxPoint x="100" y="570" as="sourcePoint" />
            <mxPoint x="850" y="480" as="targetPoint" />
          </mxGeometry>
        </mxCell>
        <mxCell id="28" value="&lt;&lt;include&gt;&gt;" style="endArrow=open;endSize=12;dashed=1;html=1;rounded=0;" parent="1" source="8" target="9" edge="1">
          <mxGeometry width="160" relative="1" as="geometry">
            <mxPoint x="370" y="180" as="sourcePoint" />
            <mxPoint x="400" y="180" as="targetPoint" />
          </mxGeometry>
        </mxCell>
        <mxCell id="29" value="&lt;&lt;include&gt;&gt;" style="endArrow=open;endSize=12;dashed=1;html=1;rounded=0;" parent="1" source="9" target="10" edge="1">
          <mxGeometry width="160" relative="1" as="geometry">
            <mxPoint x="540" y="180" as="sourcePoint" />
            <mxPoint x="570" y="180" as="targetPoint" />
          </mxGeometry>
        </mxCell>
        <mxCell id="30" value="&lt;&lt;include&gt;&gt;" style="endArrow=open;endSize=12;dashed=1;html=1;rounded=0;" parent="1" source="12" target="13" edge="1">
          <mxGeometry width="160" relative="1" as="geometry">
            <mxPoint x="670" y="180" as="sourcePoint" />
            <mxPoint x="170" y="280" as="targetPoint" />
          </mxGeometry>
        </mxCell>
        <mxCell id="31" value="&lt;&lt;extend&gt;&gt;" style="endArrow=open;endSize=12;dashed=1;html=1;rounded=0;" parent="1" source="14" target="13" edge="1">
          <mxGeometry width="160" relative="1" as="geometry">
            <mxPoint x="200" y="280" as="sourcePoint" />
            <mxPoint x="170" y="280" as="targetPoint" />
          </mxGeometry>
        </mxCell>
        <mxCell id="32" value="&lt;&lt;extend&gt;&gt;" style="endArrow=open;endSize=12;dashed=1;html=1;rounded=0;" parent="1" source="15" target="13" edge="1">
          <mxGeometry width="160" relative="1" as="geometry">
            <mxPoint x="350" y="280" as="sourcePoint" />
            <mxPoint x="170" y="280" as="targetPoint" />
          </mxGeometry>
        </mxCell>
        <mxCell id="33" value="&lt;&lt;include&gt;&gt;" style="endArrow=open;endSize=12;dashed=1;html=1;rounded=0;" parent="1" source="14" target="16" edge="1">
          <mxGeometry width="160" relative="1" as="geometry">
            <mxPoint x="260" y="280" as="sourcePoint" />
            <mxPoint x="170" y="380" as="targetPoint" />
          </mxGeometry>
        </mxCell>
        <mxCell id="34" value="&lt;&lt;include&gt;&gt;" style="endArrow=open;endSize=12;dashed=1;html=1;rounded=0;" parent="1" source="14" target="17" edge="1">
          <mxGeometry width="160" relative="1" as="geometry">
            <mxPoint x="320" y="280" as="sourcePoint" />
            <mxPoint x="320" y="380" as="targetPoint" />
          </mxGeometry>
        </mxCell>
      </root>
    </mxGraphModel>
  </diagram>
</mxfile>
